PathFileType	4	(X/Y/Z)	c:/Users/goper/Files/vsCode/490R/osim_files/C07/C07_Slow_01.trc
DataRate	CameraRate	NumFrames	NumMarkers	Units                	OrigDataRate	OrigDataStartFrame	OrigNumFrames
250.00	250.00	8	36	mm	250.0	1552	3103
                Frame#	Time	LPSIS			LASIS			LTH1			LTH2			LTH3			LTH4			LLFE			LMFE			LSH1			LSH2			LSH3			LSH4			LLMAL			LMMAL			LCAL			LMTP5			LTOE			LMTP1			RPSIS			RASIS			RTH1			RTH2			RTH3			RTH4			RLFE			RMFE			RSH1			RSH2			RSH3			RSH4			RLMAL			RMMAL			RCAL			RMTP1			RTOE			RMTP5		
		X1	Y1	Z1	X2	Y2	Z2	X3	Y3	Z3	X4	Y4	Z4	X5	Y5	Z5	X6	Y6	Z6	X7	Y7	Z7	X8	Y8	Z8	X9	Y9	Z9	X10	Y10	Z10	X11	Y11	Z11	X12	Y12	Z12	X13	Y13	Z13	X14	Y14	Z14	X15	Y15	Z15	X16	Y16	Z16	X17	Y17	Z17	X18	Y18	Z18	X19	Y19	Z19	X20	Y20	Z20	X21	Y21	Z21	X22	Y22	Z22	X23	Y23	Z23	X24	Y24	Z24	X25	Y25	Z25	X26	Y26	Z26	X27	Y27	Z27	X28	Y28	Z28	X29	Y29	Z29	X30	Y30	Z30	X31	Y31	Z31	X32	Y32	Z32	X33	Y33	Z33	X34	Y34	Z34	X35	Y35	Z35	X36	Y36	Z36

1552	6.20400	344.61453	993.95007	342.05716	175.77167	980.10425	419.47983	205.70755	778.25415	469.27243	179.31139	703.50500	469.96011	154.04013	632.49695	459.75540	106.55764	729.96985	446.40787	138.25047	510.36688	436.85968	138.28670	494.26157	314.79660	112.19056	318.97513	445.25803	115.51927	273.88437	426.96814	76.31959	336.43579	433.73508	0.00000	0.00000	0.00000	61.47006	102.78284	387.18924	38.07024	132.28444	317.24524	110.95944	48.64498	335.39038	-71.23284	40.04309	409.48633	-128.10614	60.21438	359.44693	-96.73689	49.14521	306.36945	338.55331	998.71960	240.31001	177.03082	964.83276	161.95474	245.72084	817.24994	111.24039	257.32623	738.68951	113.56480	271.22787	658.32513	123.47120	188.57533	729.58881	147.34229	329.45917	488.94073	154.74815	325.24042	499.19818	268.87247	481.20535	367.40927	149.13455	483.34369	310.10901	146.34653	427.48239	333.06631	151.50391	455.07883	299.30298	155.00020	603.63446	179.24353	193.93710	570.01392	173.36459	271.57947	671.76483	156.35773	247.09233	505.93680	45.39362	278.53107	486.86206	51.72403	230.81683	527.73438	45.94876	169.14548
1553	6.20800	340.04813	994.74365	342.17822	171.19070	980.98151	419.80344	200.93002	779.21533	469.59879	174.61093	704.43732	470.06818	149.48358	633.50958	459.66156	102.17139	730.84198	446.36215	134.66835	511.01355	437.18735	135.66748	494.76117	315.20776	109.88605	319.21021	445.82626	113.54037	274.12296	426.86560	74.07370	336.49005	433.91037	0.00000	0.00000	0.00000	61.55999	102.86871	386.73688	37.74699	132.13251	316.90942	110.88010	48.65916	335.38074	-71.36250	39.99738	409.48724	-128.17975	59.55347	359.10019	-96.94873	48.32794	306.18228	333.96866	999.29944	240.53777	172.55258	965.39642	162.42995	240.36433	817.40704	111.79258	251.69112	738.92053	113.30263	264.76910	658.25104	123.34127	182.57175	730.13757	147.13902	322.01190	488.62286	153.57227	317.25174	498.33975	268.04138	475.06784	369.10828	148.75618	477.76648	311.51752	145.49509	422.04614	334.36774	150.36011	449.84042	300.64359	153.93541	599.36310	182.11130	193.32335	565.57306	175.71196	270.64587	667.87689	161.10898	246.68541	505.06140	46.00660	278.50067	486.15234	51.92341	230.71941	526.94727	46.52266	169.10535
1554	6.21200	335.41431	995.49054	342.38754	166.67239	981.90771	420.47256	196.25560	780.15820	469.93256	170.13957	705.30817	470.23306	145.26176	634.37164	459.66922	97.63559	731.65186	446.26614	131.10107	511.60028	437.52652	133.03447	495.27863	315.49997	107.53689	319.44498	446.34683	111.07876	274.75217	426.33270	71.72015	336.50104	433.88510	0.00000	0.00000	0.00000	60.24694	102.88233	386.94659	37.43709	132.04008	316.53882	110.74677	48.69036	335.37506	-71.55354	40.02257	409.40085	-128.37012	58.74053	358.65961	-97.15383	47.40145	305.85971	329.36429	999.82983	240.78702	167.78745	965.76373	163.06013	235.07553	817.59558	111.94333	245.93213	738.99860	113.33151	258.28754	658.17426	123.12748	176.78192	730.45856	147.27478	314.30795	488.24753	152.46812	309.13824	497.64597	267.21906	469.00052	371.00925	148.04414	472.29556	314.00351	144.84399	416.58044	335.96948	148.84544	444.32938	301.91849	152.99548	594.87292	185.09776	192.57285	561.05243	178.34895	269.91403	663.60663	165.87770	246.28690	503.89145	46.95727	278.42566	485.59259	52.72202	231.11574	526.08032	47.29893	168.96622
1555	6.21600	330.82556	996.32202	342.60229	162.17944	982.73871	420.82269	191.46863	781.18207	470.22418	165.58807	706.24969	470.28323	140.96440	635.28650	459.49216	93.03415	732.45844	446.22696	127.69910	512.11902	437.86484	130.50021	495.78140	315.82547	105.40166	319.95071	446.83514	108.90223	274.87137	427.44144	69.40082	336.71066	433.80753	0.00000	0.00000	0.00000	59.48354	102.96625	386.86133	37.11539	131.91292	316.14914	110.65813	48.74518	335.35281	-71.73721	40.01545	409.37961	-128.58800	57.92168	358.22424	-97.31210	46.51706	305.58099	324.82047	1000.41071	240.99985	162.97624	966.20453	163.84178	229.74959	817.68933	112.59647	240.08223	739.06787	113.41628	251.80484	658.09906	122.81606	170.90086	730.90930	147.15404	306.59760	487.97626	151.26282	300.77527	496.76605	266.35098	462.75342	372.87793	147.23305	466.76904	317.23648	144.36113	411.70087	338.27844	147.20790	438.58322	303.25574	152.06226	590.27069	188.18361	191.79570	556.38678	180.86174	269.03470	659.27216	170.98320	245.85350	502.82034	47.95489	278.28589	484.67099	53.17780	231.12854	525.15051	48.29928	168.83865
1556	6.22000	325.96915	997.10132	342.90936	157.67987	983.71649	421.31039	186.49872	782.28546	470.44223	160.94894	707.23987	470.25043	136.59372	636.09869	459.21359	88.51801	733.35956	446.39999	124.39835	512.61920	438.04486	127.94250	496.28159	316.20145	102.94448	320.22397	447.05640	107.04235	274.60672	429.59033	67.27979	336.87668	433.66266	0.00000	0.00000	0.00000	58.83773	103.01278	386.70581	36.75004	131.78087	315.78525	110.60782	48.87797	335.26822	-71.79247	39.99323	409.33942	-128.75529	57.24221	357.85092	-97.56703	45.80113	305.41739	320.32938	1001.01196	241.30157	158.83850	966.78687	164.26755	224.41966	817.70953	112.99168	234.21404	739.15521	113.37138	245.34271	658.02991	122.39329	164.81654	731.32715	147.09821	298.47495	487.36725	150.26024	292.16815	495.88855	265.48886	456.12949	374.59119	146.47021	460.53244	319.33380	143.65492	405.12714	339.12039	146.33130	432.62256	304.59763	151.11949	585.39691	191.48181	191.08391	551.48090	183.69156	268.30173	654.65186	176.23799	245.25217	501.54282	49.02022	278.12576	483.52423	53.72346	230.93776	524.12665	49.44392	168.64508
1557	6.22400	321.69882	998.05756	343.07285	153.33714	984.49866	421.89291	182.17728	783.17816	470.61374	156.78474	708.08020	470.19138	132.57173	636.95001	458.93805	84.00683	734.13196	446.46512	121.02883	513.33539	438.22449	125.27564	496.92679	316.49164	100.91097	320.68204	447.26282	105.26284	274.40747	431.33502	65.24841	337.05884	433.46655	57.02194	292.93365	424.53894	58.32227	103.05637	386.59808	36.37700	131.64934	315.44324	110.61086	49.01726	335.13824	-71.84559	39.96877	409.32657	-128.75883	56.67091	357.63596	-97.68819	45.20871	305.30176	315.98911	1001.61133	241.59679	154.45956	967.24677	164.88536	219.16827	817.74835	113.37718	228.17793	739.13428	113.50940	238.92290	657.97119	121.84540	158.95038	731.74084	146.93700	290.34909	486.99487	149.23578	283.51242	495.05829	264.66895	448.96085	376.04178	145.86613	454.45807	321.24576	142.89456	399.05530	340.35901	145.02669	426.24890	305.83279	150.34721	579.75018	194.76041	190.29297	546.57141	186.50395	267.44196	649.86047	181.71269	244.58983	500.11777	50.51985	277.87723	482.10077	54.44143	230.66350	522.84143	50.91757	168.45169
1558	6.22800	317.31592	998.87567	343.29199	148.86591	985.46826	422.33304	177.48857	784.15295	470.73346	152.46930	708.93097	470.13922	128.60387	637.69983	458.72247	79.49747	734.79376	446.48044	117.97314	513.92084	438.28961	122.82579	497.48810	316.70914	98.77770	321.02954	447.31165	103.38948	274.61169	431.67792	63.05653	337.18317	433.14401	0.00000	0.00000	0.00000	57.74905	103.11565	386.48352	36.06514	131.59212	315.09583	110.64345	49.17474	335.00052	-71.91801	39.99881	409.35162	-128.87801	56.30511	357.52835	-97.74489	44.72887	305.17148	311.78802	1002.27264	241.84019	150.06218	967.65729	165.60187	213.96065	817.83105	113.51672	222.17830	739.04138	113.53377	232.56708	657.92725	121.15865	152.74564	732.15582	146.60059	281.94098	486.40872	148.28909	274.77249	494.21405	263.88889	441.07959	377.12253	145.53131	447.86172	321.14130	143.16505	392.69394	341.55170	143.87056	419.99643	307.07974	149.54062	574.81421	198.43707	189.66447	541.51489	189.38429	266.81750	644.79303	187.24399	243.93973	498.64044	51.98100	277.76266	480.61969	55.41082	230.50836	521.43237	52.58470	168.16302
1559	6.23200	313.01907	999.74158	343.53897	144.45844	986.28973	422.76270	172.64014	785.08252	470.86581	148.03055	709.72760	470.04468	124.54338	638.41998	458.41443	75.02079	735.42725	446.60077	114.34006	514.84637	438.75662	120.50366	498.05966	316.99451	96.64240	321.46942	447.28537	101.49656	275.11261	431.40842	60.84501	337.45593	432.84753	53.15221	293.29883	424.04257	57.19908	103.13306	386.39655	35.83981	131.45078	314.77380	110.58528	49.20771	334.96783	-71.98201	39.98299	409.37323	-128.93723	55.97926	357.43835	-97.82110	44.31594	305.05545	307.46780	1002.81860	242.17123	145.68855	968.01538	166.32449	208.66808	817.80292	113.92675	216.16017	738.94385	113.51467	226.08147	657.81348	120.48092	146.47997	732.68323	146.63522	274.18619	485.82367	147.31029	265.73233	493.30591	263.11234	432.55322	377.90506	145.43579	441.04623	322.77200	142.55281	385.71561	342.47028	143.05327	413.31024	308.25937	148.80464	569.41913	202.11002	188.86813	536.18042	192.43098	266.08350	639.41974	192.87134	243.38625	496.95105	53.69091	277.45605	478.95279	56.49112	230.25871	519.94708	54.50733	167.92999
